Coordinates
version=1
nRows=13
nColumns=22
inDegrees=yes

Units are S.I. units (second, meters, Newtons, ...)
If the header above contains a line with 'inDegrees', this indicates whether rotational values are in degrees (yes) or radians (no).

endheader
time	pelvis_tilt	pelvis_list	pelvis_rotation	pelvis_tx	pelvis_ty	pelvis_tz	hip_flexion_r	hip_adduction_r	hip_rotation_r	knee_angle_r	ankle_angle_r	subtalar_angle_r	hip_flexion_l	hip_adduction_l	hip_rotation_l	knee_angle_l	ankle_angle_l	subtalar_angle_l	lumbar_extension	lumbar_bending	lumbar_rotation
      2.83000000	     -0.22743951	     -5.05952194	    -17.76015635	     -0.26750688	      0.86770141	      0.38374938	     18.73472301	      1.23986912	     -4.42295707	    -29.05342907	     12.08853385	     -0.76478067	     12.75698504	    -13.36797079	     -1.34085553	    -74.56787861	     -3.49049278	      2.66064355	     -8.47529578	      5.94762546	      5.21855658
      2.84000000	     -0.11521554	     -5.05633191	    -17.38982294	     -0.25995055	      0.86899536	      0.38757035	     17.89224340	      1.26154524	     -4.72365890	    -28.91510103	     12.61260902	     -0.89224758	     14.71883769	    -13.63249355	     -1.71724444	    -76.11526043	     -2.56012717	      1.51420381	     -8.60938372	      5.83000591	      5.89696838
      2.85000000	     -0.01438493	     -4.98511068	    -17.16012172	     -0.25245054	      0.87039072	      0.39144004	     17.05994479	      1.25399915	     -4.91580014	    -28.69843052	     13.02175324	     -0.96485227	     16.55592201	    -13.79882093	     -2.29656647	    -77.24615400	     -1.59627571	      0.62940256	     -8.69722591	      5.62190080	      6.73227971
      2.86000000	      0.15756856	     -4.82499576	    -17.04555981	     -0.24498665	      0.87199120	      0.39529343	     16.14813724	      1.16330024	     -4.96713994	    -28.39760006	     13.45763818	     -1.03351784	     18.17278089	    -13.81083228	     -3.07706922	    -77.94215382	     -0.69278862	     -0.23670890	     -8.82387789	      5.27951948	      7.66403653
      2.87000000	      0.33856410	     -4.65663773	    -17.06965018	     -0.23751688	      0.87370345	      0.39920089	     15.19484342	      1.07892942	     -4.95442153	    -28.00534437	     13.77983105	     -1.04685732	     19.59433549	    -13.81667136	     -4.06988442	    -78.22943223	      0.19852104	     -0.60690963	     -8.93646942	      4.91084628	      8.75018899
      2.88000000	      0.52522642	     -4.49021610	    -17.17903065	     -0.23008733	      0.87546597	      0.40304597	     14.20756943	      0.99751154	     -4.89629500	    -27.53677711	     14.07006274	     -1.04255867	     20.85437999	    -13.80038673	     -5.19344668	    -78.14078451	      1.10568529	     -0.83573147	     -9.04346940	      4.53658616	      9.91451714
      2.89000000	      0.73755467	     -4.32037013	    -17.38696548	     -0.22265405	      0.87732307	      0.40684265	     13.14222289	      0.91352316	     -4.73684370	    -26.94367570	     14.30390246	     -1.01551787	     21.91103186	    -13.76621603	     -6.47600644	    -77.66593808	      1.96737929	     -0.97565565	     -9.15803075	      4.14697010	     11.16515212
      2.90000000	      0.95054168	     -4.18094456	    -17.66607256	     -0.21519073	      0.87918041	      0.41056810	     12.04194757	      0.84414286	     -4.58632432	    -26.28579497	     14.48567653	     -0.95877084	     22.79162106	    -13.76975613	     -7.88754803	    -76.83546979	      2.86045897	     -0.91303221	     -9.25948626	      3.79240745	     12.45516900
      2.91000000	      1.13870323	     -4.07922535	    -17.99277592	     -0.20773990	      0.88096706	      0.41420670	     10.93519581	      0.80652126	     -4.43429823	    -25.56771013	     14.61773821	     -0.88291928	     23.54445799	    -13.81927409	     -9.37940989	    -75.68296095	      3.74520468	     -0.68388268	     -9.32803846	      3.48688722	     13.78290920
      2.92000000	      1.29048302	     -4.01838211	    -18.34184384	     -0.20026688	      0.88264415	      0.41772464	      9.83281092	      0.80097276	     -4.31319269	    -24.79949352	     14.70783994	     -0.79686480	     24.18723374	    -13.91926618	    -10.92830892	    -74.22430136	      4.59987830	     -0.36097409	     -9.35045305	      3.24493990	     15.10879693
      2.93000000	      1.39843439	     -4.00124659	    -18.69471961	     -0.19276566	      0.88418127	      0.42113929	      8.74308313	      0.83557914	     -4.23215222	    -23.98937697	     14.76245894	     -0.70793164	     24.73310605	    -14.08033240	    -12.52136133	    -72.48242527	      5.39069062	     -0.01382427	     -9.31974942	      3.06736255	     16.40791487
      2.94000000	      1.45385701	     -4.02510114	    -19.03346371	     -0.18522226	      0.88554509	      0.42443100	      7.67447039	      0.90979960	     -4.20882695	    -23.13914193	     14.79171296	     -0.62207403	     25.20095897	    -14.30106673	    -14.14403623	    -70.48719983	      6.08374286	      0.28411517	     -9.22751073	      2.96195552	     17.64866075
      2.95000000	      1.46965153	     -4.09214653	    -19.34431919	     -0.17762105	      0.88673513	      0.42758664	      6.61962050	      1.02290141	     -4.25169051	    -22.26956946	     14.80251184	     -0.53616540	     25.58240307	    -14.57403514	    -15.78628934	    -68.26988996	      6.65837898	      0.48583016	     -9.08821172	      2.92563962	     18.82666138
